<svg xmlns="http://www.w3.org/2000/svg" viewBox="0 0 300 300" width="300" height="300">
  <!-- Background -->
  <rect width="300" height="300" fill="#1e1e1e" />
  
  <!-- Robot Body -->
  <rect x="75" y="100" width="150" height="130" rx="20" ry="20" fill="#333333" />
  
  <!-- Robot Head -->
  <rect x="100" y="50" width="100" height="80" rx="15" ry="15" fill="#333333" />
  
  <!-- Robot Neck -->
  <rect x="130" y="130" width="40" height="20" fill="#333333" />
  
  <!-- Robot Eyes -->
  <circle cx="125" cy="90" r="15" fill="#ff3e7f" />
  <circle cx="175" cy="90" r="15" fill="#ff3e7f" />
  
  <!-- Robot Mouth -->
  <rect x="115" y="115" width="70" height="5" rx="2" ry="2" fill="#7f3eff" />
  
  <!-- Robot Antenna -->
  <line x1="150" y1="50" x2="150" y2="30" stroke="#7f3eff" stroke-width="5" />
  <circle cx="150" cy="25" r="8" fill="#3effff" />
  
  <!-- Robot Arms -->
  <rect x="45" y="140" width="30" height="60" rx="10" ry="10" fill="#333333" />
  <rect x="225" y="140" width="30" height="60" rx="10" ry="10" fill="#333333" />
  
  <!-- Robot Buttons -->
  <circle cx="150" cy="160" r="10" fill="#3effff" />
  <circle cx="150" cy="190" r="10" fill="#7f3eff" />
  <circle cx="150" cy="220" r="10" fill="#ff3e7f" />
  
  <!-- Robot Highlights -->
  <circle cx="125" cy="90" r="5" fill="#ffffff" opacity="0.5" />
  <circle cx="175" cy="90" r="5" fill="#ffffff" opacity="0.5" />
</svg>